<svg width="47" height="59" viewBox="0 0 47 59" fill="none" xmlns="http://www.w3.org/2000/svg">
<g clip-path="url(#clip0_217_11342)">
<path d="M45.5 29.5C45.5 37.3707 43.2267 44.4334 39.6272 49.4898C36.0256 54.5493 31.1866 57.5 26 57.5C20.8134 57.5 15.9744 54.5493 12.3728 49.4898C8.77332 44.4334 6.5 37.3707 6.5 29.5C6.5 21.6293 8.77332 14.5666 12.3728 9.51025C15.9744 4.45073 20.8134 1.5 26 1.5C31.1866 1.5 36.0256 4.45073 39.6272 9.51025C43.2267 14.5666 45.5 21.6293 45.5 29.5Z" stroke="#4F4F4F" stroke-width="3"/>
<path d="M32.5 42.5001L43 42.5001C43 46.0001 38.5 53.0001 32.5 56.5116M32.5 42.5001V56.5116M32.5 42.5001L21 42.5001M32.5 56.5116C29.5 57.5001 28.2533 58.0335 26 58.0001C24.28 57.9745 22.5956 57.4261 21 57.0001M21 42.5001L9.5 42.5001C9.5 50.1234 16 54.5001 21 57.0001M21 42.5001V57.0001" stroke="#4F4F4F" stroke-width="1.60714"/>
<path d="M18.5 43H23.5V50.1183C23.5 50.6052 23.1052 51 22.6183 51H19.3817C18.8948 51 18.5 50.6052 18.5 50.1183V43Z" fill="#4F4F4F"/>
<path d="M30 43H35V50.1183C35 50.6052 34.6052 51 34.1183 51H30.8817C30.3948 51 30 50.6052 30 50.1183V43Z" fill="#4F4F4F"/>
<path fill-rule="evenodd" clip-rule="evenodd" d="M15.7103 33.8298C12.5947 37.0253 4.02682 43.6159 0.132329 46.5118C0.0324705 46.6783 -0.107332 47.0711 0.132329 47.3108C0.160844 47.3393 0.195691 47.3759 0.23713 47.4195L0.237297 47.4197C0.63133 47.8342 1.62085 48.8751 3.42767 49.5075C5.72443 50.1065 8.25875 48.8152 8.82004 48.5089C9.91849 47.9096 14.9114 43.3164 14.9114 43.3164C18.8725 43.8823 27.5136 44.5547 30.3895 42.7173C33.9844 40.4205 36.7805 36.1266 37.5794 29.5359C38.3782 22.9452 36.0059 18.2963 35.3825 17.1533C35.3365 17.0689 35.2904 16.9833 35.2437 16.8965L35.2436 16.8962C34.5808 15.6638 33.7894 14.1923 31.1884 12.7595C29.1467 11.6349 26.2415 11.9922 25.3966 12.3601C21.9015 13.8821 19.7046 16.4544 19.5049 16.8538C19.3052 17.2531 19.4051 17.5527 19.7046 17.7524C19.7955 17.8251 20.0317 17.9077 20.3497 18.0188C21.7793 18.5186 24.8609 19.5957 23.7989 22.9452C22.4317 27.257 20.5368 29.0986 17.8064 31.7523L17.8064 31.7523C17.1564 32.3841 16.4591 33.0618 15.7103 33.8298ZM26.7619 16.0942C26.7619 16.8112 26.1807 17.3924 25.4638 17.3924C24.7468 17.3924 24.1656 16.8112 24.1656 16.0942C24.1656 15.3773 24.7468 14.7961 25.4638 14.7961C26.1807 14.7961 26.7619 15.3773 26.7619 16.0942ZM26.6624 25.5806C24.7651 30.6734 20.0118 36.605 16.1773 39.5609C18.1412 40.0934 22.9477 40.6593 26.4627 38.6621C30.8565 36.1657 31.3558 34.4681 31.7552 32.5707C31.9591 31.6025 31.6917 29.8102 30.6568 28.3767C29.6639 27.0012 27.9337 25.9718 26.6624 25.5806Z" fill="#4F4F4F"/>
</g>
<defs>
<clipPath id="clip0_217_11342">
<rect width="47" height="59" fill="white"/>
</clipPath>
</defs>
</svg>
