<svg width="24" height="24" viewBox="0 0 24 24" fill="none" xmlns="http://www.w3.org/2000/svg">
<path d="M16 10C16 13.3137 13.3137 16 10 16C6.68629 16 4 13.3137 4 10C4 6.68629 6.68629 4 10 4C13.3137 4 16 6.68629 16 10ZM5.91912 10C5.91912 12.2538 7.74619 14.0809 10 14.0809C12.2538 14.0809 14.0809 12.2538 14.0809 10C14.0809 7.74619 12.2538 5.91912 10 5.91912C7.74619 5.91912 5.91912 7.74619 5.91912 10Z" fill="#737373"/>
<path d="M13 14.4142L14.4142 13L19.6011 18.1869C19.9916 18.5774 19.9916 19.2106 19.6011 19.6011C19.2106 19.9916 18.5774 19.9916 18.1869 19.6011L13 14.4142Z" fill="#737373"/>
</svg>
